<svg id="Layer_1" data-name="Layer 1" xmlns="http://www.w3.org/2000/svg" xmlns:xlink="http://www.w3.org/1999/xlink" viewBox="0 0 287.31 301.03"><defs><style>.cls-1{fill:url(#linear-gradient);}.cls-2{fill:url(#linear-gradient-2);}.cls-3{fill:url(#linear-gradient-3);}</style><linearGradient id="linear-gradient" x1="281.69" y1="114.75" x2="228.98" y2="62.76" gradientUnits="userSpaceOnUse"><stop offset="0" stop-color="#a37cb7"/><stop offset="0.34" stop-color="#a27eb8"/><stop offset="0.46" stop-color="#9c85ba"/><stop offset="0.55" stop-color="#9390bf"/><stop offset="0.62" stop-color="#86a1c5"/><stop offset="0.68" stop-color="#76b7cd"/><stop offset="0.71" stop-color="#6bc5d2"/><stop offset="1" stop-color="#71cbd2"/></linearGradient><linearGradient id="linear-gradient-2" x1="251.91" y1="259.58" x2="40.97" y2="51.47" gradientUnits="userSpaceOnUse"><stop offset="0" stop-color="#a37cb7"/><stop offset="0.3" stop-color="#a27eb8"/><stop offset="0.41" stop-color="#9c85ba"/><stop offset="0.49" stop-color="#9390bf"/><stop offset="0.56" stop-color="#86a1c5"/><stop offset="0.61" stop-color="#76b7cd"/><stop offset="0.64" stop-color="#6bc5d2"/><stop offset="0.67" stop-color="#56c1d8"/><stop offset="0.73" stop-color="#37bae0"/><stop offset="0.79" stop-color="#1fb5e7"/><stop offset="0.85" stop-color="#0eb1eb"/><stop offset="0.92" stop-color="#03afee"/><stop offset="1" stop-color="#00aeef"/></linearGradient><linearGradient id="linear-gradient-3" x1="249.86" y1="227.83" x2="12.14" y2="-6.7" gradientUnits="userSpaceOnUse"><stop offset="0" stop-color="#a37cb7"/><stop offset="0.22" stop-color="#a17eb8"/><stop offset="0.33" stop-color="#9b86bb"/><stop offset="0.41" stop-color="#9193bf"/><stop offset="0.48" stop-color="#83a5c6"/><stop offset="0.54" stop-color="#71bdcf"/><stop offset="0.56" stop-color="#6bc5d2"/><stop offset="0.57" stop-color="#68c4d3"/><stop offset="0.71" stop-color="#3bbbdf"/><stop offset="0.83" stop-color="#1bb4e8"/><stop offset="0.93" stop-color="#07b0ed"/><stop offset="1" stop-color="#00aeef"/></linearGradient></defs><path class="cls-1" d="M270.57,77.11c-2-.16-3.6.59-5.43,1.4a55,55,0,0,0-5.79,2.92c-.87.53-1.85,1.48-3,1.37s-2.36-1.58-3.57-2.48l.91-.82L252.87,78c-.09-.14-.84.31-.92.35a3,3,0,0,1-1,.41,1.16,1.16,0,0,1-1.09-.57s.32-.46.34-.52a.59.59,0,0,0,.05-.43,1.73,1.73,0,0,0-.3-.57,3.65,3.65,0,0,0-.63-.82,1.6,1.6,0,0,1-1.72.63A6.6,6.6,0,0,1,246,75.36a14.35,14.35,0,0,1-1.76-1.31c-1-1-1.73-.86-2.75,0-.8.68-.83,1.08-.18,1.84,2.32,2.73,4.58,5.5,6.85,8.26.66.8,1.28,1.64,2,2.54-.07-.09-4.35,2.49-4.76,2.72L243,90.78a8.12,8.12,0,0,1-2.07,1.11,1.72,1.72,0,0,1-1.16-.28c-1.09-.6-2.21-1.15-3.26-1.83-.79-.52-1.32-.46-1.89.47a8,8,0,0,0,.81,1c.28.32.55.65.81,1,.49.65,1.07,1.23,1.57,1.88a1.72,1.72,0,0,1,.38,1.61.25.25,0,0,0,0,.12.21.21,0,0,0,.07.11,5.1,5.1,0,0,1,1.2,1.42,14.15,14.15,0,0,1,.65,1.86c.14.44.28.87.41,1.31A9.42,9.42,0,0,0,241,102c1.09.09,1.44-.35,1.45-1.27s.26-2,.18-3a2.41,2.41,0,0,1,1.75-2.61c2.71-1.27,5.36-2.68,8.06-4a8.21,8.21,0,0,1,.32.8c1.3,4.11,2.58,8.23,3.9,12.33.15.49,0,1.34,1,1.18,1.57-.25,2.22-.79,2.16-1.79a32.29,32.29,0,0,0-.18-3.28c-.2-1.27.05-2.2,1.34-2.68.53-.19-.08-.86-.19-1.1a6.44,6.44,0,0,0-.48-.85c-.08.09-.75.09-.83.18-.59-1.66,1.39-1.37,1.77-2.42l-.66-1.53-1.34.4a8.13,8.13,0,0,0-.1-1.54c-.66-2.41.44-3.59,2.6-4.54l.18-.08c3.64-1.63,7.45-3.47,9.73-6.89C272.4,78.05,272,77.21,270.57,77.11Z"/><path class="cls-2" d="M202.81,120.88a65,65,0,0,1-98.76,43.94c-13.35,3-28.15,4.73-41.4,2.39,2.63,4.25,5.48,8.38,8.49,12.44,4.45,6,9.21,11.93,14.16,17.91,4.25,5.14,8.6,10.34,13,15.77,5.58,6.95,11.11,14.31,16.37,22.27,2.82,4.26,5.52,8.77,8.14,13.46a185.43,185.43,0,0,1,15.32,35.46.68.68,0,0,0,1.3,0,188.38,188.38,0,0,1,22.76-47.81c3.67-5.63,7.47-11,11.35-16,1-1.26,1.94-2.5,2.91-3.74,3.72-4.73,7.45-9.34,11.14-13.8l6.33-7.63c16.77-20.35,31.33-40,36-67.55.49-2.83.89-5.72,1.16-8.73q.3-3.54.41-7.26c0-1,.17-2,.17-3,0-2.36-.1-4.69-.28-7C222.16,108.6,212.54,114.94,202.81,120.88Z"/><path class="cls-3" d="M231.13,99.41a97.82,97.82,0,0,0-1.71-10.48c-.13-.61-.32-1.2-.46-1.8a92.19,92.19,0,0,0-2.79-9.34,90.56,90.56,0,0,0-5-11.69,93.25,93.25,0,0,0-20.75-26.55c-1-.9-2-1.83-3.06-2.69a94.25,94.25,0,0,0-8.39-6A92.85,92.85,0,0,0,75.13,41.33c-.66.62-1.37,1.19-2,1.83-1.77,1.77-3.43,3.64-5.05,5.55A94.32,94.32,0,0,0,54.91,69c-13.3,10.13-49.19,40.58-37.2,66.05,13.75,29.22,53.94,26.47,80.86,21.33a244.13,244.13,0,0,0,24.13-5.95,4.83,4.83,0,0,0,6.74.37l4.59-4c11.27-3.85,22.32-8.29,33.23-13,12.15-5.21,24.38-11,36.16-17.4v.08l2.36-1.37q6.4-3.51,12.58-7.24L238,96q-4.11,2.11-8.21,4.26ZM50.74,79.28a92.48,92.48,0,0,0-4.92,29.66,117.38,117.38,0,0,0,.69,12.27c.31,2.92.83,5.68,1.34,8.43.33,1.76.54,3.62,1,5.32.14.61.3,1.22.46,1.82a66.45,66.45,0,0,1-8.67-10.47S26.43,107.23,52.93,73.45C52.14,75.36,51.4,77.31,50.74,79.28Zm66,48.63a1.62,1.62,0,0,1-2.27-.14l-11.11-12.4a1.62,1.62,0,0,1,.11-2.27l17.25-15.85a3.23,3.23,0,0,1,2.48-.84l3.82.35a3.24,3.24,0,0,1,2.17,1.13l8.32,9.81a1.62,1.62,0,0,1-.17,2.26Zm13.47,13.63-.82.21,40.3-40.88a1.63,1.63,0,0,0,.08-2.18L154.43,80.56a1.61,1.61,0,0,0-1.08-.56l-6.59-.6a1.59,1.59,0,0,0-.93.2L128,89.6,144,74.81a1.59,1.59,0,0,1,1.24-.41l10.48.95a1.67,1.67,0,0,1,1.09.57l19.66,23.19a1.61,1.61,0,0,1-.17,2.26Zm73.4-27.88c-10.25,5.06-20.63,9.86-31.3,14.08-9.05,3.59-18.27,6.9-27.64,9.77L183,104.15a4.84,4.84,0,0,0,.51-6.79L161.35,71.24A6.44,6.44,0,0,0,157,69L145.15,67.9a6.47,6.47,0,0,0-5,1.67L94.37,111.69a4.85,4.85,0,0,0-.33,6.8l23.25,25.92c-4.1.79-8.21,1.48-12.35,2A179.71,179.71,0,0,1,86.11,148a65,65,0,1,1,117.53-34.35Z"/></svg>